<?xml version="1.0" encoding="iso-8859-1"?>
<!-- Uploaded to: SVG Repo, www.svgrepo.com, Generator: SVG Repo Mixer Tools -->
<!DOCTYPE svg PUBLIC "-//W3C//DTD SVG 1.1//EN" "http://www.w3.org/Graphics/SVG/1.1/DTD/svg11.dtd">
<svg fill="#000000" version="1.1" id="Capa_1" xmlns="http://www.w3.org/2000/svg" xmlns:xlink="http://www.w3.org/1999/xlink" 
	 width="800px" height="800px" viewBox="0 0 80 80" xml:space="preserve">
<g>
	<g>
		<path d="M29.398,48.509c0-0.554,0.447-1,1-1c0.553,0,1,0.446,1,1v4.079h5.729v-6.656c0-0.553,0.447-1,1-1c0.553,0,1,0.447,1,1
			v6.656h5.9V42.382c0-0.554,0.447-1,1-1s1,0.446,1,1v10.206h3.842V38.507c0-0.553,0.447-1,1-1s1,0.447,1,1v14.081h3.237V31.743
			H25.3v20.845h4.099L29.398,48.509L29.398,48.509z M30.104,41.404c0.074-0.017,6.63-1.449,12.83-5.282l-0.241-0.22
			c-0.015-0.014-0.021-0.033-0.035-0.047c-0.065-0.068-0.122-0.145-0.167-0.229c-0.02-0.035-0.033-0.069-0.048-0.105
			c-0.028-0.075-0.046-0.152-0.058-0.234c-0.004-0.039-0.013-0.077-0.013-0.117c0-0.018-0.007-0.034-0.006-0.053
			c0.002-0.042,0.022-0.076,0.031-0.116c0.013-0.079,0.028-0.155,0.061-0.229c0.021-0.046,0.048-0.083,0.075-0.125
			c0.032-0.052,0.051-0.109,0.094-0.156c0.018-0.02,0.043-0.027,0.062-0.045c0.034-0.031,0.071-0.053,0.108-0.079
			c0.066-0.048,0.131-0.095,0.205-0.124c0.057-0.023,0.113-0.03,0.174-0.042c0.063-0.013,0.127-0.028,0.191-0.028
			c0.016,0,0.029-0.008,0.045-0.007l2.576,0.122c0.113,0.006,0.223,0.033,0.322,0.073c0.029,0.012,0.054,0.031,0.08,0.046
			c0.078,0.039,0.148,0.085,0.213,0.143c0.031,0.027,0.058,0.057,0.085,0.088c0.051,0.06,0.093,0.123,0.13,0.193
			c0.02,0.037,0.039,0.071,0.054,0.11c0.007,0.019,0.021,0.033,0.025,0.053c0.026,0.087,0.034,0.175,0.038,0.263
			c0,0.011,0.006,0.02,0.006,0.03V35.3c0,0.001,0,0.001,0,0.001v2.216c0,0.051-0.021,0.095-0.029,0.144
			c-0.011,0.073-0.016,0.146-0.043,0.215c-0.027,0.074-0.074,0.135-0.119,0.199c-0.025,0.038-0.037,0.081-0.07,0.116
			c-0.004,0.005-0.012,0.007-0.017,0.012c-0.08,0.084-0.176,0.149-0.28,0.202c-0.018,0.008-0.031,0.023-0.047,0.031
			c-0.121,0.052-0.255,0.081-0.395,0.081c-0.127,0-0.252-0.027-0.372-0.075c-0.056-0.022-0.099-0.061-0.149-0.092
			c-0.051-0.032-0.105-0.053-0.152-0.095l-0.807-0.736c-6.616,4.241-13.616,5.774-13.941,5.845c-0.07,0.015-0.141,0.021-0.209,0.021
			c-0.462,0-0.877-0.322-0.977-0.792C29.219,42.05,29.564,41.519,30.104,41.404z"/>
		<rect x="25.3" y="24.427" width="30.807" height="5.316"/>
		<path d="M40,80c22.092,0,40-17.908,40-40C80,17.909,62.092,0,40,0S0,17.909,0,40C0,62.092,17.908,80,40,80z M23.3,23.427
			c0-0.553,0.447-1,1-1h32.807c0.553,0,1,0.447,1,1v30.161c0,0.553-0.447,1-1,1H24.3c-0.553,0-1-0.447-1-1V23.427z"/>
	</g>
</g>
</svg>